<svg width="174" height="248" viewBox="0 0 174 248" fill="none" xmlns="http://www.w3.org/2000/svg">
<path fill-rule="evenodd" clip-rule="evenodd" d="M104.429 148.482L75.8495 197.982C74.628 200.098 75.3266 202.788 77.4828 204.033L85.0302 208.391C87.1538 209.617 89.8465 208.929 91.0871 206.78L119.666 157.279L165.379 183.671C169.587 186.101 171.029 191.481 168.599 195.689L131.194 260.477C112.983 292.02 72.643 302.823 41.0944 284.609L33.4442 280.192C1.89095 261.974 -8.92357 221.65 9.2929 190.098L46.6984 125.309C49.1277 121.102 54.5082 119.66 58.7159 122.089L104.429 148.482ZM148.732 1.36706L224.92 45.3543C229.128 47.7836 230.569 53.164 228.14 57.3718L214.944 80.2282C212.514 84.436 207.134 85.8776 202.926 83.4483L126.738 39.4611C122.53 37.0318 121.089 31.6513 123.518 27.4436L136.714 4.58715C139.144 0.379395 144.524 -1.06229 148.732 1.36706ZM119.666 157.279L104.429 148.482L155.727 56.1981L165.472 61.8243L175.217 67.4505L119.666 157.279Z" fill="#43D7EE"/>
</svg>
