<svg width="50" height="50" viewBox="0 0 50 50" fill="none" xmlns="http://www.w3.org/2000/svg">
  <path fill-rule="evenodd" clip-rule="evenodd" d="M28.3358 12.7495C29.6232 13.1071 30.3769 14.4408 30.0194 15.7281L24.6429 35.0829C24.3455 36.1537 23.3729 36.8553 22.3132 36.8553C22.0989 36.8553 21.881 36.8266 21.6644 36.7664C20.3769 36.4089 19.6232 35.0753 19.9808 33.7879L25.3573 14.4331C25.715 13.1456 27.0486 12.3919 28.3358 12.7495ZM12.0308 13.2205C13.0581 14.0747 13.1984 15.6002 12.3442 16.6277L5.56887 24.7756L12.341 32.8848C13.1974 33.9103 13.0603 35.4361 12.0347 36.2926C11.5821 36.6705 11.0321 36.855 10.4852 36.855C9.79291 36.855 9.10549 36.5594 8.62694 35.9863L0.562421 26.3295C-0.186289 25.4331 -0.187579 24.1298 0.559195 23.2318L8.62371 13.5337C9.47791 12.5063 11.0034 12.366 12.0308 13.2205ZM49.4376 23.1866C50.1863 24.0829 50.1876 25.3861 49.4408 26.2843L41.3763 35.9824C40.8979 36.5579 40.2089 36.855 39.5148 36.855C38.9695 36.855 38.4211 36.6718 37.9692 36.2958C36.9419 35.4416 36.8016 33.9161 37.656 32.8887L44.4313 24.7408L37.6592 16.6316C36.8027 15.6061 36.9397 14.0803 37.9653 13.2239C38.9908 12.3674 40.5166 12.5043 41.3731 13.53L49.4376 23.1866Z" fill="white"/>
</svg>