<svg width="25" height="24" viewBox="0 0 25 24" fill="none" xmlns="http://www.w3.org/2000/svg">
<g clip-path="url(#clip0_10_425)">
<path d="M19.98 0H5.98001C3.21901 0 0.980011 2.239 0.980011 5V19C0.980011 21.761 3.21901 24 5.98001 24H19.98C22.742 24 24.98 21.761 24.98 19V5C24.98 2.239 22.742 0 19.98 0ZM8.98001 19H5.98001V8H8.98001V19ZM7.48001 6.732C6.51401 6.732 5.73001 5.942 5.73001 4.968C5.73001 3.994 6.51401 3.204 7.48001 3.204C8.44601 3.204 9.23001 3.994 9.23001 4.968C9.23001 5.942 8.44701 6.732 7.48001 6.732ZM20.98 19H17.98V13.396C17.98 10.028 13.98 10.283 13.98 13.396V19H10.98V8H13.98V9.765C15.376 7.179 20.98 6.988 20.98 12.241V19Z" fill="white"/>
</g>
<defs>
<clipPath id="clip0_10_425">
<rect width="24" height="24" fill="white" transform="translate(0.980011)"/>
</clipPath>
</defs>
</svg>
